<?xml version="1.0" encoding="UTF-8"?>
<svg version="1.1" xmlns="http://www.w3.org/2000/svg" width="1500" height="221">
<path d="M0 0 C3.61607798 2.75835598 6.83413828 5.73998626 10 9 C10.54914063 9.52851562 11.09828125 10.05703125 11.6640625 10.6015625 C16.29341938 15.42896674 19.13273949 21.48411526 22.16796875 27.37890625 C22.48499756 27.98863281 22.80202637 28.59835938 23.12866211 29.2265625 C23.92740496 30.85224703 24.60350525 32.53670317 25.265625 34.22265625 C27.6727002 38.07722937 30.48423432 39.12132695 34.5625 40.875 C41.52775795 44.12081646 47.36172493 47.69757886 53 53 C53.69351563 53.64066406 54.38703125 54.28132813 55.1015625 54.94140625 C66.70442668 66.7458646 72.17088507 83.22138278 72.375 99.5 C72.17506143 116.96259572 65.87121182 132.1568761 54 145 C53.43152344 145.62261719 52.86304688 146.24523437 52.27734375 146.88671875 C48.14219901 150.93098118 43.42001079 153.57427026 38.3125 156.1875 C37.68988281 156.5086377 37.06726563 156.82977539 36.42578125 157.16064453 C34.3123063 158.19128315 32.17188581 159.0983659 30 160 C28.79120178 160.51546135 28.79120178 160.51546135 27.5579834 161.04133606 C16.32742589 165.16184529 4.91428493 164.5799464 -6.89453125 164.53125 C-9.21416893 164.53395045 -11.53380549 164.53783745 -13.85343933 164.54284668 C-18.69903411 164.54871918 -23.54433247 164.54025368 -28.38989258 164.52148438 C-34.55930445 164.49873513 -40.72801853 164.51180746 -46.89740467 164.53577423 C-51.68394593 164.5503259 -56.47032567 164.54558286 -61.25687218 164.53526306 C-63.52954888 164.53261959 -65.80224088 164.53578036 -68.07489967 164.54518127 C-90.09957415 164.61629516 -107.76958317 161.84613406 -125 147 C-125.67804688 146.42894531 -126.35609375 145.85789063 -127.0546875 145.26953125 C-138.48717103 134.83794609 -145.13759307 118.91454385 -146.15625 103.66015625 C-146.84444882 84.13251464 -139.56409492 66.9914693 -126.4375 52.875 C-118.2363242 44.948445 -108.16006732 39.46858632 -97 37 C-96.95875 35.906875 -96.9175 34.81375 -96.875 33.6875 C-95.41991746 22.51875832 -86.61474256 11.81849983 -78.328125 4.70703125 C-54.65375735 -13.11562123 -25.46560125 -15.4463483 0 0 Z M-61 20 C-62.051875 20.7425 -63.10375 21.485 -64.1875 22.25 C-74.12707561 31.96869615 -77.74383277 43.58174227 -80 57 C-80.98226562 57.02126953 -80.98226562 57.02126953 -81.984375 57.04296875 C-94.22489728 57.68265706 -104.28526522 62.37863738 -113 71 C-118.82126566 77.95039047 -123.20830734 86.89553438 -124 96 C-124.1546875 97.7634375 -124.1546875 97.7634375 -124.3125 99.5625 C-124.09224215 112.33745512 -117.46702785 122.71433143 -108.90625 131.58984375 C-106.52748759 133.5019146 -106.52748759 133.5019146 -101 135 C-100.67 125.76 -100.34 116.52 -100 107 C-97.525 106.01 -97.525 106.01 -95 105 C-95 101.7 -95 98.4 -95 95 C-89.72 95 -84.44 95 -79 95 C-79 98.3 -79 101.6 -79 105 C-76.69 105 -74.38 105 -72 105 C-72 92.79 -72 80.58 -72 68 C-62.76 68 -53.52 68 -44 68 C-42.85647084 65.71294169 -42.89665561 64.40735238 -42.9375 61.875 C-42.958125 60.59625 -42.97875 59.3175 -43 58 C-38.38 58 -33.76 58 -29 58 C-29 61.3 -29 64.6 -29 68 C-20.09 68 -11.18 68 -2 68 C-2 80.21 -2 92.42 -2 105 C1.63 105 5.26 105 9 105 C9 101.7 9 98.4 9 95 C13.95 95 18.9 95 24 95 C24 98.3 24 101.6 24 105 C25.65 105.33 27.3 105.66 29 106 C28.98259766 107.27230469 28.98259766 107.27230469 28.96484375 108.5703125 C28.89912125 117.11423811 29.27525312 125.48422414 30 134 C40.24626881 127.98885563 46.01734616 120.4848392 49.5859375 109.13671875 C51.66404223 98.41291413 50.09595296 86.87610757 44.4921875 77.46875 C42.78566341 75.15105216 40.98883788 73.07959834 39 71 C37.99453125 69.93458984 37.99453125 69.93458984 36.96875 68.84765625 C28.22356838 60.34011544 17.88265296 57.41159175 6 56 C6.0825 55.113125 6.165 54.22625 6.25 53.3125 C6.20174828 41.41845204 0.11641446 31.2707304 -7.6875 22.8125 C-15.46703851 15.38859754 -24.68522343 11.37855893 -35.40234375 10.890625 C-45.02850127 11.2959369 -53.22618005 14.46753689 -61 20 Z M-61 80 C-61 88.25 -61 96.5 -61 105 C-45.16 105 -29.32 105 -13 105 C-13 96.75 -13 88.5 -13 80 C-28.84 80 -44.68 80 -61 80 Z M-89 117 C-89 124.92 -89 132.84 -89 141 C-85.48343764 141.70331247 -82.94419857 142.1237292 -79.48510742 142.11352539 C-78.1943354 142.11341209 -78.1943354 142.11341209 -76.87748718 142.11329651 C-75.9627211 142.10813522 -75.04795502 142.10297394 -74.10546875 142.09765625 C-73.15811356 142.0962413 -72.21075836 142.09482635 -71.23469543 142.09336853 C-68.21893105 142.08778611 -65.20324182 142.07523682 -62.1875 142.0625 C-60.13867295 142.05748273 -58.08984473 142.05292022 -56.04101562 142.04882812 C-51.02731494 142.03782243 -46.0136702 142.02056988 -41 142 C-40.97113016 138.02084841 -40.95324594 134.04172347 -40.9375 130.0625 C-40.92493164 128.35803711 -40.92493164 128.35803711 -40.91210938 126.61914062 C-40.90888672 125.53955078 -40.90566406 124.45996094 -40.90234375 123.34765625 C-40.89710693 122.34742432 -40.89187012 121.34719238 -40.88647461 120.31665039 C-40.73818905 118.03792772 -40.73818905 118.03792772 -42 117 C-43.47354348 116.90695982 -44.95150591 116.88253735 -46.42797852 116.88647461 C-47.36887833 116.88655014 -48.30977814 116.88662567 -49.27919006 116.88670349 C-50.30209641 116.89186478 -51.32500275 116.89702606 -52.37890625 116.90234375 C-53.941605 116.90446617 -53.941605 116.90446617 -55.53587341 116.90663147 C-58.87811094 116.9122492 -62.22028257 116.9248047 -65.5625 116.9375 C-67.82226466 116.94251272 -70.08203037 116.94707602 -72.34179688 116.95117188 C-77.89457734 116.96137544 -83.44721452 116.98094736 -89 117 Z M-30 118 C-30.09946453 119.76859193 -30.13080217 121.54111451 -30.1328125 123.3125 C-30.13410156 124.38757813 -30.13539063 125.46265625 -30.13671875 126.5703125 C-30.13285156 127.70210937 -30.12898438 128.83390625 -30.125 130 C-30.12886719 131.13179687 -30.13273437 132.26359375 -30.13671875 133.4296875 C-30.13542969 134.50476563 -30.13414062 135.57984375 -30.1328125 136.6875 C-30.13168457 137.68136719 -30.13055664 138.67523438 -30.12939453 139.69921875 C-30.2583433 141.96375226 -30.2583433 141.96375226 -29 143 C-26.46223244 143.12606703 -23.95327182 143.18869398 -21.4140625 143.203125 C-20.64250824 143.20882507 -19.87095398 143.21452515 -19.07601929 143.22039795 C-17.43334327 143.22987107 -15.79064805 143.23639106 -14.14794922 143.24023438 C-11.66989085 143.24982624 -9.1927031 143.28077706 -6.71484375 143.3125 C-5.11458823 143.31904157 -3.51432679 143.32428749 -1.9140625 143.328125 C-0.82274521 143.3466452 -0.82274521 143.3466452 0.2906189 143.36553955 C6.92888739 143.33774212 11.10093093 141.88156429 18 140 C18 132.41 18 124.82 18 117 C11.32474596 116.97709596 4.6496272 116.95716736 -2.02563477 116.94506836 C-4.29842591 116.94002675 -6.5712138 116.93319363 -8.84399414 116.92456055 C-12.10303551 116.91248739 -15.36203417 116.90677013 -18.62109375 116.90234375 C-19.64400009 116.89718246 -20.66690643 116.89202118 -21.72080994 116.88670349 C-22.66170975 116.88662796 -23.60260956 116.88655243 -24.57202148 116.88647461 C-25.40475082 116.884254 -26.23748016 116.88203339 -27.09544373 116.87974548 C-29.01033274 116.78995168 -29.01033274 116.78995168 -30 118 Z " fill="#040707" transform="translate(162,32)"/>
<path d="M0 0 C2.36166382 -0.38095093 2.36166382 -0.38095093 5.36083984 -0.38818359 C6.4831601 -0.39764008 7.60548035 -0.40709656 8.7618103 -0.4168396 C9.98252228 -0.41076691 11.20323425 -0.40469421 12.4609375 -0.3984375 C14.34505844 -0.40274277 14.34505844 -0.40274277 16.26724243 -0.40713501 C18.93579696 -0.4091814 21.60353435 -0.40511391 24.27197266 -0.39111328 C27.65865343 -0.37419398 31.04461184 -0.38374546 34.43126488 -0.40183067 C37.69117945 -0.41543832 40.95101336 -0.40583021 44.2109375 -0.3984375 C45.41140717 -0.40451019 46.61187683 -0.41058289 47.84872437 -0.4168396 C59.59268032 -0.32059027 71.69039214 1.45896388 80.74609375 9.5625 C87.91819521 17.28905319 89.69595416 24.96819458 89.3828125 35.40625 C88.50370388 43.65910639 84.65470195 49.13795898 79 55 C80.74635031 58.78909952 83.00931825 61.08052496 86 64 C91.29920847 69.29920847 92.6120389 76.3143695 93.375 83.5625 C92.36044085 92.86262555 89.15748288 101.5515496 81.92578125 107.7890625 C73.80385404 113.54386608 64.76204325 116.09776761 54.86450195 116.16113281 C53.65006912 116.17074036 52.43563629 116.1803479 51.18440247 116.19024658 C49.88218246 116.19449646 48.57996246 116.19874634 47.23828125 116.203125 C45.88258361 116.20888118 44.52688598 116.21463885 43.17118835 116.22039795 C40.33767317 116.2308724 37.50418609 116.2367398 34.6706543 116.24023438 C31.03542038 116.24574385 27.40055635 116.26983813 23.76543903 116.29820633 C20.9696695 116.31679145 18.17399039 116.32203585 15.37816429 116.32357025 C13.38498484 116.32807594 11.39185373 116.34673003 9.39875793 116.36553955 C8.19378159 116.36253845 6.98880524 116.35953735 5.74731445 116.35644531 C4.68317825 116.36009094 3.61904205 116.36373657 2.5226593 116.36749268 C1.69018173 116.24622009 0.85770416 116.12494751 0 116 C-2.10828774 112.83756838 -2.25058303 112.09414134 -2.25396729 108.48339844 C-2.25960693 107.55805298 -2.26524658 106.63270752 -2.27105713 105.67932129 C-2.26700867 104.66623901 -2.26296021 103.65315674 -2.25878906 102.609375 C-2.2622937 101.54086304 -2.26579834 100.47235107 -2.26940918 99.37145996 C-2.27822915 95.83090769 -2.27237631 92.29055439 -2.265625 88.75 C-2.26697157 86.295247 -2.26891204 83.84049427 -2.27142334 81.38574219 C-2.27437497 76.23760441 -2.27007566 71.08953598 -2.26074219 65.94140625 C-2.2493477 59.33341961 -2.25590696 52.72559542 -2.26788712 46.11761475 C-2.27510463 41.04767629 -2.27281827 35.97777652 -2.26763153 30.90783691 C-2.26629474 28.47090638 -2.26794378 26.03397237 -2.27259064 23.5970459 C-2.27765401 20.19481056 -2.26994807 16.79284051 -2.25878906 13.390625 C-2.26283752 12.37754272 -2.26688599 11.36446045 -2.27105713 10.32067871 C-2.26259766 8.93266052 -2.26259766 8.93266052 -2.25396729 7.51660156 C-2.25321323 6.71208557 -2.25245918 5.90756958 -2.25168228 5.07867432 C-2 3 -2 3 0 0 Z M26 24 C24.16755958 30.9965907 24.3134882 38.2837205 27 45 C31.20870224 47.73670707 35.45985376 47.33109251 40.3125 47.3125 C41.14201172 47.32861328 41.97152344 47.34472656 42.82617188 47.36132812 C49.42958488 47.36653997 54.31826581 46.33792211 59.4375 41.875 C61.62821413 37.844086 61.65330588 34.49147791 61 30 C59.6337382 26.30305629 58.53287618 25.29461561 55.08203125 23.38671875 C50.09711301 21.34810847 45.05682145 21.59998645 39.75 21.6875 C38.75742187 21.68427734 37.76484375 21.68105469 36.7421875 21.67773438 C31.03829143 21.58259198 31.03829143 21.58259198 26 24 Z M26 70 C25.1819919 73.94642074 25.15932992 77.97812663 25 82 C24.94714844 82.96035156 24.89429688 83.92070312 24.83984375 84.91015625 C24.45388701 89.52545953 24.45388701 89.52545953 26.16430664 93.61523438 C30.08283689 96.57119974 36.00887247 95.15493212 40.6875 94.9375 C41.84701172 94.90978516 43.00652344 94.88207031 44.20117188 94.85351562 C51.16016377 94.57262397 56.11147815 93.80693287 62 90 C64.63035908 86.05446138 65.46060637 82.65467758 64.63671875 77.90625 C63.44168376 73.97656438 62.53506425 72.42371708 59.203125 69.78515625 C53.7659018 66.89399029 47.74338195 67.49931097 41.75 67.625 C39.97496094 67.62693359 39.97496094 67.62693359 38.1640625 67.62890625 C31.71253866 67.47158387 31.71253866 67.47158387 26 70 Z " fill="#D92027" transform="translate(787,57)"/>
<path d="M0 0 C10.03722027 7.59697865 17.28274393 17.17870159 21.3046875 29.18359375 C21.34505859 31.18318625 21.35058845 33.18412054 21.3046875 35.18359375 C17.24242929 35.29997801 13.1806012 35.37090748 9.1171875 35.43359375 C7.39145508 35.48386719 7.39145508 35.48386719 5.63085938 35.53515625 C3.96313477 35.55449219 3.96313477 35.55449219 2.26171875 35.57421875 C0.72994995 35.60563965 0.72994995 35.60563965 -0.83276367 35.63769531 C-5.19421114 34.94581537 -7.59901483 32.5328832 -10.3203125 29.18359375 C-10.7740625 28.52359375 -11.2278125 27.86359375 -11.6953125 27.18359375 C-15.91260754 21.41424851 -20.56597311 17.67108632 -27.6953125 16.18359375 C-38.83894589 15.0871079 -49.03860556 15.72027671 -58.0703125 23.1328125 C-65.13265349 30.36392266 -68.21879591 39.36545309 -68.7890625 49.359375 C-68.48970976 58.37737641 -65.67586464 66.39485889 -59.6953125 73.18359375 C-52.48948086 79.86216941 -44.52815781 83.16887392 -34.6953125 83.18359375 C-23.75140414 82.2604113 -16.37478807 77.58572992 -9.32421875 69.3671875 C-7.65058782 67.26018655 -7.65058782 67.26018655 -6.59765625 64.96875 C-5.6953125 63.18359375 -5.6953125 63.18359375 -3.6953125 62.18359375 C-1.82098487 62.08681892 0.05677058 62.05283547 1.93359375 62.05078125 C3.05056641 62.04949219 4.16753906 62.04820313 5.31835938 62.046875 C6.48947266 62.05074219 7.66058594 62.05460937 8.8671875 62.05859375 C10.04216797 62.05472656 11.21714844 62.05085938 12.42773438 62.046875 C13.54341797 62.04816406 14.65910156 62.04945312 15.80859375 62.05078125 C16.83799072 62.05190918 17.8673877 62.05303711 18.92797852 62.05419922 C21.3046875 62.18359375 21.3046875 62.18359375 22.3046875 63.18359375 C22.08762751 74.68777331 15.12009471 85.14413608 7.3046875 93.18359375 C-5.32324082 104.52517643 -20.21269657 109.60384355 -37.0078125 109.49609375 C-37.93134521 109.4904541 -38.85487793 109.48481445 -39.80639648 109.47900391 C-55.17026693 109.20640823 -68.26242603 104.26610416 -79.4453125 93.53125 C-91.98711302 80.4451005 -97.24089945 65.08527341 -97.11694336 47.06396484 C-96.56123692 29.71051825 -90.18152849 15.32772163 -77.6953125 3.18359375 C-56.47663916 -16.01425355 -22.91743453 -15.44435806 0 0 Z " fill="#040707" transform="translate(360.6953125,65.81640625)"/>
<path d="M0 0 C8.25 0 16.5 0 25 0 C26.21718711 2.43437422 26.12579863 3.98575002 26.12698364 6.70678711 C26.13121338 8.19588089 26.13121338 8.19588089 26.13552856 9.71505737 C26.13249222 11.35463913 26.13249222 11.35463913 26.12939453 13.02734375 C26.13202301 14.74934494 26.13202301 14.74934494 26.13470459 16.50613403 C26.13912078 20.31660455 26.13618591 24.12702898 26.1328125 27.9375 C26.13348561 30.57543954 26.13445569 33.21337903 26.13571167 35.85131836 C26.13753228 41.38623559 26.1351299 46.92113948 26.13037109 52.45605469 C26.12492868 58.86011924 26.12669141 65.26415197 26.1321975 71.66821575 C26.13727745 77.82236339 26.1367459 83.97649689 26.13381577 90.13064575 C26.13314673 92.75261438 26.13397409 95.37458382 26.13629532 97.99655151 C26.13882323 101.65527527 26.13497923 105.31393713 26.12939453 108.97265625 C26.13141876 110.06571075 26.13344299 111.15876526 26.13552856 112.28494263 C26.13270874 113.27767181 26.12988892 114.270401 26.12698364 115.29321289 C26.1264181 116.59180992 26.1264181 116.59180992 26.12584114 117.91664124 C26 120 26 120 25 122 C22.06152347 122.107834 19.12698849 122.18721916 16.1875 122.25 C15.35412109 122.28351563 14.52074219 122.31703125 13.66210938 122.3515625 C7.52875647 122.45009026 7.52875647 122.45009026 4.92578125 120.234375 C4 118 4 118 4 114 C3.42894531 114.38671875 2.85789062 114.7734375 2.26953125 115.171875 C-10.57598732 123.42241475 -24.45428047 126.33804104 -39.43359375 123.3046875 C-51.01139128 119.79447627 -60.47402437 112.89173923 -66.5390625 102.31640625 C-72.19715615 90.12337987 -73.55590312 75.97463825 -70 63 C-65.78987451 51.83246373 -59.6728892 42.75950101 -48.9375 37.0625 C-35.06689761 30.88358342 -22.14201359 32.60907366 -8 37 C-5.64574124 37.9551789 -3.32841788 38.98230745 -1 40 C-1.00523682 38.85934082 -1.01047363 37.71868164 -1.01586914 36.54345703 C-1.03393869 32.32048321 -1.04543919 28.09751282 -1.05493164 23.87451172 C-1.05996737 22.04507879 -1.06679627 20.21564991 -1.07543945 18.38623047 C-1.08753824 15.76008102 -1.09323583 13.13398468 -1.09765625 10.5078125 C-1.10281754 9.68693146 -1.10797882 8.86605042 -1.11329651 8.02029419 C-1.11387171 2.22774341 -1.11387171 2.22774341 0 0 Z M-41.78125 64.08203125 C-45.82673244 70.44847958 -47.12604077 76.87607805 -45.49609375 84.29296875 C-43.54216683 90.95865089 -40.44562474 95.86364329 -34.25 99.3125 C-27.87531099 102.17631705 -21.55127839 102.73225305 -14.84375 100.72265625 C-8.35373672 98.17890105 -3.78213462 93.56426925 -0.6875 87.375 C0.84463426 79.85361364 1.20913619 72.43732676 -2.80859375 65.67578125 C-6.5092995 60.47052628 -10.91429786 56.93213294 -17 55 C-26.89937439 53.552381 -35.58250319 56.00644165 -41.78125 64.08203125 Z " fill="#040707" transform="translate(735,51)"/>
<path d="M0 0 C8.25 0 16.5 0 25 0 C25.02254729 15.75917064 25.04097933 31.51832858 25.05181217 47.27751064 C25.05697506 54.59427402 25.06401762 61.9110267 25.07543945 69.2277832 C25.08538651 75.60283018 25.09185348 81.97786941 25.09408849 88.35292393 C25.09539557 91.73048014 25.09848119 95.10801416 25.10573006 98.48556328 C25.11293613 102.25007343 25.11399113 106.01453685 25.11352539 109.77905273 C25.11712067 110.90689682 25.12071594 112.03474091 25.12442017 113.19676208 C25.1230455 114.21624939 25.12167084 115.23573669 25.12025452 116.28611755 C25.12117631 117.17749137 25.1220981 118.06886518 25.12304783 118.98725033 C25 121 25 121 24 122 C21.37948926 122.18062277 18.81039474 122.27807881 16.1875 122.3125 C15.09985352 122.35600586 15.09985352 122.35600586 13.99023438 122.40039062 C10.44922721 122.4425069 8.42482201 122.31776958 5.55078125 120.16796875 C4 118 4 118 3 115 C0.88609666 116.04725487 -1.21284979 117.1129407 -3.296875 118.21875 C-4.10640625 118.6415625 -4.9159375 119.064375 -5.75 119.5 C-6.54921875 119.9228125 -7.3484375 120.345625 -8.171875 120.78125 C-19.68148861 125.74119398 -33.73197277 125.81273745 -45.359375 121.25390625 C-55.96871527 116.21603905 -64.82459746 108.2033078 -69 97 C-73.09487142 85.44237378 -73.09270422 68.88002727 -68.3828125 57.56640625 C-61.81655763 45.37988239 -53.64920365 38.17919769 -40.54296875 33.7265625 C-26.5618558 29.7319588 -14.83164403 33.1351114 -2 39 C-1.96241577 37.33445068 -1.96241577 37.33445068 -1.92407227 35.63525391 C-1.83005085 31.52396681 -1.72981743 27.41285077 -1.62768555 23.30175781 C-1.5843167 21.52087397 -1.54264306 19.73994802 -1.50268555 17.95898438 C-1.4450301 15.40221452 -1.3813223 12.84565702 -1.31640625 10.2890625 C-1.29969376 9.49005524 -1.28298126 8.69104797 -1.26576233 7.86782837 C-1.11387171 2.22774341 -1.11387171 2.22774341 0 0 Z M-40.375 62.25 C-44.44683401 67.55469486 -46.59133049 73.15001226 -46.28515625 79.92578125 C-45.34630283 86.75497528 -43.04159483 92.18247606 -38 97 C-31.50800887 101.34656917 -25.03459432 102.73664568 -17.375 101.3125 C-10.47668952 99.52273216 -6.13424019 95.74200027 -2 90 C1.11702009 83.6175303 1.05891617 75.48091302 -1.0625 68.75 C-3.57992923 62.99418764 -7.94279557 59.22641033 -13.25 56.0625 C-23.21947664 53.23781495 -33.0925748 54.4307867 -40.375 62.25 Z " fill="#D92027" transform="translate(1171,51)"/>
<path d="M0 0 C3.61607798 2.75835598 6.83413828 5.73998626 10 9 C10.54914063 9.52851562 11.09828125 10.05703125 11.6640625 10.6015625 C16.29341938 15.42896674 19.13273949 21.48411526 22.16796875 27.37890625 C22.64351196 28.29349609 22.64351196 28.29349609 23.12866211 29.2265625 C23.92740496 30.85224703 24.60350525 32.53670317 25.265625 34.22265625 C27.6727002 38.07722937 30.48423432 39.12132695 34.5625 40.875 C41.52775795 44.12081646 47.36172493 47.69757886 53 53 C53.69351563 53.64066406 54.38703125 54.28132813 55.1015625 54.94140625 C66.70442668 66.7458646 72.17088507 83.22138278 72.375 99.5 C72.17506143 116.96259572 65.87121182 132.1568761 54 145 C53.43152344 145.62261719 52.86304688 146.24523437 52.27734375 146.88671875 C48.04079076 151.03016069 43.17102304 153.69963642 37.9375 156.375 C37.26460937 156.72127441 36.59171875 157.06754883 35.8984375 157.42431641 C31.63926954 159.50284872 27.81619143 160.86573042 23 161 C21.03125 159.84765625 21.03125 159.84765625 19.5 158.0625 C18.92894531 157.41796875 18.35789062 156.7734375 17.76953125 156.109375 C17.18558594 155.41328125 16.60164063 154.7171875 16 154 C15.36449219 153.30390625 14.72898437 152.6078125 14.07421875 151.890625 C11.20211962 148.72715349 8.77928353 145.91442377 7 142 C7.97839844 141.76925781 8.95679688 141.53851563 9.96484375 141.30078125 C17.60136065 139.43188786 24.44181909 137.49738469 31 133 C31.83144531 132.47019531 32.66289062 131.94039062 33.51953125 131.39453125 C41.58891978 125.72055341 45.60864928 118.27251954 48.6640625 108.98046875 C50.49306472 98.19786263 49.13087745 86.87085186 43.45703125 77.43359375 C41.75725675 75.13481405 39.9737477 73.06696371 38 71 C37.40316406 70.36320312 36.80632812 69.72640625 36.19140625 69.0703125 C27.95062803 61.0865232 16.93174928 58.3840517 6 56 C5.85304688 55.05640625 5.70609375 54.1128125 5.5546875 53.140625 C3.20938386 39.71578347 -0.98170541 28.74880309 -12 20 C-22.10166894 13.13263734 -31.96721521 10.72170274 -44 13 C-55.49675654 15.85380481 -65.12736839 22.28163776 -71.5703125 32.28515625 C-74.04730767 36.98873997 -75.57512811 41.89480574 -77 47 C-77.22558594 47.76441406 -77.45117188 48.52882812 -77.68359375 49.31640625 C-78.13947827 50.87270169 -78.57330451 52.43544985 -79 54 C-85.59593629 52.84204674 -90.35885641 47.0145528 -94.5625 42.125 C-96.59474956 39.22417255 -97.42112047 37.24300301 -97.25 33.6875 C-94.55898284 20.16281892 -83.80703209 8.21258053 -72.73828125 0.7109375 C-49.74638529 -13.65489764 -23.18924848 -14.06560973 0 0 Z " fill="#D81F26" transform="translate(162,32)"/>
<path d="M0 0 C9.96849663 7.68998312 15.00028113 17.38130943 18.0625 29.375 C18.47124239 34.38209432 18.57784377 39.41938111 18.3125 44.4375 C17.3125 45.4375 17.3125 45.4375 14.64866638 45.55775452 C12.8666256 45.5544236 12.8666256 45.5544236 11.04858398 45.55102539 C10.0681311 45.55124443 10.0681311 45.55124443 9.06787109 45.5514679 C6.89807872 45.55076883 4.72837121 45.54297678 2.55859375 45.53515625 C1.05786689 45.53329205 -0.44286057 45.53186816 -1.94358826 45.53086853 C-5.90068226 45.52704352 -9.85773978 45.5172134 -13.81481934 45.50616455 C-17.84984849 45.49595006 -21.88488353 45.49137083 -25.91992188 45.48632812 C-33.84246469 45.47559111 -41.76497781 45.4585149 -49.6875 45.4375 C-49.22580911 46.7303661 -48.75830227 48.02115633 -48.28833008 49.31103516 C-48.02860916 50.03006012 -47.76888824 50.74908508 -47.501297 51.48989868 C-45.56130763 56.1327345 -41.28534878 58.63857561 -36.9375 60.8125 C-26.12365327 62.89208591 -19.20951899 60.5710367 -10.07421875 54.78125 C-5.28155385 52.87966208 -0.9136788 53.11521276 4.1875 53.25 C5.16203125 53.26353516 6.1365625 53.27707031 7.140625 53.29101562 C9.53182863 53.32618038 11.92186975 53.3753933 14.3125 53.4375 C15.24914151 56.46812741 15.55969076 57.90768204 14.1953125 60.83203125 C5.87799026 72.27297007 -3.12157078 79.70313047 -17.015625 82.89453125 C-31.90723209 85.09658804 -45.77448733 84.36551601 -58.5 75.75 C-67.75133722 68.56488363 -75.15588188 58.29335875 -76.6875 46.4375 C-77.60918613 32.28880947 -75.79317711 18.43996976 -66.78515625 7.02734375 C-50.12976687 -11.01348489 -20.01537014 -13.22589587 0 0 Z M-47.8125 22.0625 C-49.93032147 25.23110175 -49.93032147 25.23110175 -49.6875 28.4375 C-35.8275 28.4375 -21.9675 28.4375 -7.6875 28.4375 C-8.6988471 23.38076452 -9.90119458 20.75165222 -13.6875 17.4375 C-24.48063316 10.26414974 -39.73464649 11.40516386 -47.8125 22.0625 Z " fill="#D92027" transform="translate(1290.6875,91.5625)"/>
<path d="M0 0 C8.18323224 6.08584919 14.10643873 17.51029065 15.7890625 27.53125 C17.12388406 43.15360608 15.00006387 54.68756335 5.32421875 67.16015625 C-2.38075504 75.72307145 -14.46171819 81.4472651 -25.93798828 82.11230469 C-41.34757106 82.80602783 -55.13299075 81.01023146 -67.51171875 70.9609375 C-77.65057755 61.47565803 -81.79232075 49.2191309 -82.375 35.4375 C-81.91617782 25.15223605 -78.93178605 16.35634641 -73 8 C-72.278125 6.948125 -71.55625 5.89625 -70.8125 4.8125 C-52.66909893 -13.33090107 -20.7639558 -14.46937077 0 0 Z M-52.625 23 C-56.43063266 28.53546569 -56.7578983 34.4763184 -56 41 C-54.49742259 47.11827927 -52.14251868 51.97987911 -47.046875 55.8125 C-40.36472727 59.68916586 -33.49512 60.96526654 -26 59 C-18.76564634 56.54430197 -14.08533808 52.07588807 -10.625 45.3125 C-9.24234232 37.98441427 -8.7062357 30.43293652 -12.6015625 23.81640625 C-16.58997506 18.63592625 -21.43124407 14.18237607 -28 13 C-38.48084053 11.86742204 -46.02550644 14.68952663 -52.625 23 Z " fill="#040707" transform="translate(527,93)"/>
<path d="M0 0 C8.25 0 16.5 0 25 0 C26.22178599 2.44357199 26.13749192 4.05001356 26.15771484 6.78173828 C26.16797699 7.77682404 26.17823914 8.77190979 26.18881226 9.79714966 C26.19611359 10.8772934 26.20341492 11.95743713 26.2109375 13.0703125 C26.2390189 15.35156952 26.26768344 17.63281942 26.296875 19.9140625 C26.33805065 23.51497096 26.37493208 27.11574838 26.40136719 30.71679688 C26.42907668 34.18908302 26.47496435 37.66076224 26.5234375 41.1328125 C26.52669037 42.20081085 26.52994324 43.2688092 26.53329468 44.36917114 C26.63501734 50.59540181 27.29056058 55.35903596 30 61 C34.12972388 64.74556352 38.44053789 66.25033225 44 66 C48.44737152 65.14505243 51.83089467 63.57975813 54.875 60.1875 C59.33051091 53.50423363 59.31703547 47.30303053 59.37890625 39.51171875 C59.39590073 38.41277786 59.4128952 37.31383698 59.43040466 36.18159485 C59.48339791 32.68362103 59.52379451 29.18565881 59.5625 25.6875 C59.60638647 22.1715463 59.65299762 18.65568553 59.70530701 15.1398468 C59.73734343 12.95419816 59.76420848 10.76846673 59.78553772 8.58268738 C59.79902756 7.60109146 59.8125174 6.61949554 59.82641602 5.6081543 C59.84068382 4.30626411 59.84068382 4.30626411 59.85523987 2.97807312 C60 1 60 1 61 0 C62.76859193 -0.09946453 64.54111451 -0.13080217 66.3125 -0.1328125 C67.38757813 -0.13410156 68.46265625 -0.13539062 69.5703125 -0.13671875 C70.70210937 -0.13285156 71.83390625 -0.12898438 73 -0.125 C74.13179687 -0.12886719 75.26359375 -0.13273437 76.4296875 -0.13671875 C77.50476563 -0.13542969 78.57984375 -0.13414063 79.6875 -0.1328125 C80.68136719 -0.13168457 81.67523437 -0.13055664 82.69921875 -0.12939453 C85 0 85 0 86 1 C86.10043271 3.64200061 86.1361685 6.2578859 86.12939453 8.90039062 C86.13202301 10.14178047 86.13202301 10.14178047 86.13470459 11.4082489 C86.13912393 14.15760362 86.13618483 16.90689457 86.1328125 19.65625 C86.13348552 21.55814629 86.13445552 23.46004249 86.13571167 25.36193848 C86.13718875 29.35344255 86.13503375 33.34492429 86.13037109 37.33642578 C86.1246738 42.46490507 86.12795275 47.59333202 86.13394356 52.72180939 C86.13754889 56.65074054 86.13641072 60.57965918 86.13381577 64.5085907 C86.13314642 66.40012112 86.13397519 68.29165265 86.13629532 70.18318176 C86.13882138 72.82202177 86.13498191 75.46077581 86.12939453 78.09960938 C86.13141876 78.88925583 86.13344299 79.67890228 86.13552856 80.49247742 C86.11426251 85.88573749 86.11426251 85.88573749 85 87 C82.19488047 87.15354338 79.43136329 87.23165776 76.625 87.25 C75.84382812 87.270625 75.06265625 87.29125 74.2578125 87.3125 C68.42643612 87.35244093 68.42643612 87.35244093 66.32568359 85.61621094 C64.87504819 83.84766464 63.93353324 82.08249723 63 80 C62.45472656 80.39832031 61.90945313 80.79664063 61.34765625 81.20703125 C50.38317663 88.91028103 40.21805427 90.35658154 27 89 C23.27390692 88.17041701 20.27048585 86.95134936 17 85 C15.92878906 84.36384766 15.92878906 84.36384766 14.8359375 83.71484375 C6.86610162 78.35684547 2.03603892 70.2949603 0 61 C-1.37743455 49.67815994 -1.15411433 38.21160323 -1.13037109 26.82763672 C-1.12493799 23.71447035 -1.13038425 20.60144366 -1.13671875 17.48828125 C-1.13605917 15.50781218 -1.1347805 13.5273432 -1.1328125 11.546875 C-1.13483673 10.61679626 -1.13686096 9.68671753 -1.13894653 8.72845459 C-1.13579437 7.8728595 -1.13264221 7.0172644 -1.12939453 6.13574219 C-1.12859894 5.38299011 -1.12780334 4.63023804 -1.12698364 3.85467529 C-1 2 -1 2 0 0 Z " fill="#D92027" transform="translate(896,86)"/>
<path d="M0 0 C1.24813477 0.06864258 1.24813477 0.06864258 2.52148438 0.13867188 C3.37677734 0.20248047 4.23207031 0.26628906 5.11328125 0.33203125 C6.41362305 0.39874023 6.41362305 0.39874023 7.74023438 0.46679688 C14.15222695 0.87097695 14.15222695 0.87097695 16.42578125 3.14453125 C17.83223587 6.89565669 17.5662619 10.86912675 17.55517578 14.81884766 C17.55780426 15.97070305 17.55780426 15.97070305 17.56048584 17.14582825 C17.56488053 19.67927319 17.56197533 22.21264812 17.55859375 24.74609375 C17.55926733 26.50678521 17.56023782 28.26747658 17.56149292 30.02816772 C17.56296655 33.71507657 17.56082556 37.40196116 17.55615234 41.08886719 C17.55044688 45.82144913 17.55374135 50.55397446 17.55972481 55.28655434 C17.56333231 58.9204247 17.56219111 62.55428155 17.55959702 66.18815231 C17.55892871 67.9337197 17.55975284 69.67928831 17.56207657 71.42485428 C17.56460708 73.85960406 17.56075722 76.29426107 17.55517578 78.72900391 C17.55720001 79.45423752 17.55922424 80.17947113 17.56130981 80.92668152 C17.54004749 85.91599876 17.54004749 85.91599876 16.42578125 88.14453125 C13.65468818 88.19845522 10.88464307 88.2381658 8.11328125 88.26953125 C7.32759766 88.28628906 6.54191406 88.30304688 5.73242188 88.3203125 C4.97509766 88.32675781 4.21777344 88.33320313 3.4375 88.33984375 C2.74100342 88.35031738 2.04450684 88.36079102 1.3269043 88.37158203 C-0.57421875 88.14453125 -0.57421875 88.14453125 -3.57421875 86.14453125 C-4.26171875 83.01953125 -4.26171875 83.01953125 -4.57421875 80.14453125 C-5.27546875 80.61503906 -5.97671875 81.08554688 -6.69921875 81.5703125 C-18.92270844 89.59197761 -28.99999218 91.94830682 -43.58203125 89.67578125 C-52.63678586 87.29145715 -59.5088975 82.4493968 -64.359375 74.44140625 C-69.52805893 64.66910352 -69.72595527 55.34483967 -69.70703125 44.46484375 C-69.70798798 43.25633759 -69.7089447 42.04783142 -69.70993042 40.80270386 C-69.71060884 38.25941923 -69.70877817 35.71613284 -69.70458984 33.17285156 C-69.69920884 29.26233085 -69.70456059 25.35192354 -69.7109375 21.44140625 C-69.71027721 18.97005183 -69.70899706 16.49869748 -69.70703125 14.02734375 C-69.70905548 12.85140656 -69.71107971 11.67546936 -69.71316528 10.46389771 C-69.71001312 9.38542572 -69.70686096 8.30695374 -69.70361328 7.19580078 C-69.70281769 6.24206573 -69.70202209 5.28833069 -69.70120239 4.30569458 C-69.57421875 2.14453125 -69.57421875 2.14453125 -68.57421875 1.14453125 C-66.80562682 1.04506672 -65.03310424 1.01372908 -63.26171875 1.01171875 C-62.18664062 1.01042969 -61.1115625 1.00914063 -60.00390625 1.0078125 C-58.87210938 1.01167969 -57.7403125 1.01554687 -56.57421875 1.01953125 C-55.44242188 1.01566406 -54.310625 1.01179688 -53.14453125 1.0078125 C-52.06945312 1.00910156 -50.994375 1.01039062 -49.88671875 1.01171875 C-48.39591797 1.01341064 -48.39591797 1.01341064 -46.875 1.01513672 C-44.57421875 1.14453125 -44.57421875 1.14453125 -43.57421875 2.14453125 C-43.46724729 3.66185623 -43.42800754 5.18403058 -43.41650391 6.70507812 C-43.40624176 7.67699097 -43.39597961 8.64890381 -43.38540649 9.65026855 C-43.37810516 10.71056274 -43.37080383 11.77085693 -43.36328125 12.86328125 C-43.33519105 15.0976633 -43.30652647 17.3320382 -43.27734375 19.56640625 C-43.23622201 23.09700151 -43.19934681 26.62746619 -43.17285156 30.15820312 C-43.14509204 33.56017999 -43.0991942 36.96154371 -43.05078125 40.36328125 C-43.04752838 41.40738159 -43.04427551 42.45148193 -43.04092407 43.52722168 C-42.92995801 50.20623202 -42.54394474 57.25725699 -38.33511353 62.76647949 C-35.23513077 65.71590789 -31.97860834 66.99985899 -27.7265625 67.27734375 C-22.38564949 66.94777743 -17.98454015 65.51869056 -14.13671875 61.76953125 C-9.29573099 53.63667181 -9.43684438 45.26146001 -9.65234375 36.0625 C-9.67956986 34.14259456 -9.70557628 32.22267149 -9.73046875 30.30273438 C-9.77389921 27.30233134 -9.8249149 24.3028516 -9.89648438 21.30297852 C-9.96287053 18.3893374 -9.99778132 15.4767162 -10.02734375 12.5625 C-10.05628723 11.66250778 -10.08523071 10.76251556 -10.11505127 9.83525085 C-10.12512608 7.5023548 -10.08487174 5.4206642 -9.57421875 3.14453125 C-6.54636545 0.33655581 -4.05242826 -0.24020459 0 0 Z " fill="#040707" transform="translate(628.57421875,84.85546875)"/>
<path d="M0 0 C5.60525725 4.50857648 8.80715678 10.33646811 9.8125 17.4375 C9.874375 18.613125 9.93625 19.78875 10 21 C7.48769164 23.51230836 1.17678143 22.47466509 -2.1875 22.5625 C-3.75081055 22.6562793 -3.75081055 22.6562793 -5.34570312 22.75195312 C-12.99281212 22.91238199 -12.99281212 22.91238199 -15.97119141 20.21435547 C-17.55078125 18.02734375 -17.55078125 18.02734375 -18.80981445 15.82788086 C-19.94270436 13.67328935 -19.94270436 13.67328935 -23 13 C-27.61493432 12.59326003 -31.74137161 12.54689378 -36.125 14.125 C-38.27826972 15.92534227 -38.27826972 15.92534227 -38.5625 19 C-38.30003423 22.03175661 -38.30003423 22.03175661 -36.30908203 23.58447266 C-33.71479622 25.17483733 -31.43876088 25.89638321 -28.4921875 26.6484375 C-26.88730469 27.07382813 -26.88730469 27.07382813 -25.25 27.5078125 C-23.0238684 28.07980465 -20.79731393 28.65015389 -18.5703125 29.21875 C-8.96443801 31.76959227 2.30674403 35.13366088 8.21484375 43.77734375 C12.10175399 50.76271625 12.90609305 58.08865317 10.8359375 65.8046875 C7.97698965 73.3127655 3.00328621 77.06550604 -3.92578125 80.7734375 C-16.83017498 85.92207744 -33.24672354 86.01995137 -46.234375 81.2578125 C-53.93395219 77.75602739 -59.75052613 73.43297802 -64 66 C-65.53774073 61.87605896 -66.26626441 58.39336277 -66 54 C-62.24737357 52.12368679 -57.75497651 52.72879977 -53.625 52.6875 C-52.6659375 52.65849609 -51.706875 52.62949219 -50.71875 52.59960938 C-43.63758175 52.53550409 -43.63758175 52.53550409 -40.453125 54.85546875 C-39.97359375 55.56316406 -39.4940625 56.27085937 -39 57 C-36.00586332 61.19179135 -34.14786676 63.02870439 -29 64 C-24.54620289 63.85283105 -20.30232839 63.13885163 -16 62 C-15.13617572 59.24293584 -15.13617572 59.24293584 -15 56 C-17.69664806 51.7113549 -19.97719614 50.24516079 -24.8125 48.9375 C-25.9571875 48.61652344 -27.101875 48.29554688 -28.28125 47.96484375 C-30.82167877 47.3057199 -33.36296364 46.6517364 -35.90625 46.00390625 C-56.72739901 40.67479164 -56.72739901 40.67479164 -62.25 31.5625 C-65.58679819 24.76973225 -66.27387463 17.14217901 -63.875 9.875 C-60.88993566 3.01889331 -57.13114591 -0.79150911 -50.25 -3.8125 C-33.22733172 -10.18551867 -15.74591009 -9.71432759 0 0 Z " fill="#D92027" transform="translate(1462,91)"/>
<path d="M0 0 C4.14581887 -0.02886751 8.29161216 -0.04675327 12.4375 -0.0625 C14.21350586 -0.07506836 14.21350586 -0.07506836 16.02539062 -0.08789062 C17.15009766 -0.09111328 18.27480469 -0.09433594 19.43359375 -0.09765625 C20.47572021 -0.10289307 21.51784668 -0.10812988 22.59155273 -0.11352539 C25 0 25 0 26 1 C26.09801202 2.53896196 26.12631844 4.08241675 26.12698364 5.62449646 C26.12980347 6.62426514 26.13262329 7.62403381 26.13552856 8.65409851 C26.13350433 9.76009903 26.1314801 10.86609955 26.12939453 12.00561523 C26.13114685 13.16322357 26.13289917 14.32083191 26.13470459 15.51351929 C26.13912631 19.36189244 26.13618379 23.21022008 26.1328125 27.05859375 C26.13348549 29.72038328 26.13445379 32.3821714 26.13571167 35.04396057 C26.13753334 40.63193256 26.13512739 46.21989134 26.13037109 51.80786133 C26.12493113 58.27382098 26.1266892 64.73974909 26.1321975 71.20570797 C26.13673187 76.74966529 26.1373775 82.2936131 26.13475883 87.83757168 C26.1331975 91.15198407 26.13338924 94.46637833 26.13629532 97.78079033 C26.13882332 101.47554559 26.13497897 105.17023956 26.12939453 108.86499023 C26.13141876 109.96896652 26.13344299 111.07294281 26.13552856 112.21037292 C26.13129883 113.71425568 26.13129883 113.71425568 26.12698364 115.2485199 C26.12660662 116.12292441 26.12622959 116.99732893 26.12584114 117.89823055 C26 120 26 120 25 122 C21.02084841 122.02886984 17.04172347 122.04675406 13.0625 122.0625 C11.35803711 122.07506836 11.35803711 122.07506836 9.61914062 122.08789062 C8.53955078 122.09111328 7.45996094 122.09433594 6.34765625 122.09765625 C4.84730835 122.10551147 4.84730835 122.10551147 3.31665039 122.11352539 C1 122 1 122 0 121 C-0.09591199 119.43112365 -0.12187996 117.85792208 -0.12025452 116.28611755 C-0.12231651 114.7568866 -0.12231651 114.7568866 -0.12442017 113.19676208 C-0.12082489 112.068918 -0.11722961 110.94107391 -0.11352539 109.77905273 C-0.11367142 108.59872467 -0.11381744 107.41839661 -0.1139679 106.20230103 C-0.11338895 102.95657892 -0.10835986 99.71089945 -0.10139394 96.46518588 C-0.09515962 93.07656968 -0.09455654 89.68795272 -0.09336853 86.29933167 C-0.09025544 79.87844196 -0.08204236 73.45756919 -0.07201904 67.03668696 C-0.0608572 59.72846175 -0.05534727 52.42023576 -0.05032361 45.11200416 C-0.03985973 30.07465998 -0.02226073 15.03733168 0 0 Z " fill="#040707" transform="translate(402,51)"/>
<path d="M0 0 C0.93199219 -0.00257812 1.86398437 -0.00515625 2.82421875 -0.0078125 C3.80003906 -0.00007813 4.77585937 0.00765625 5.78125 0.015625 C6.75707031 0.00789063 7.73289062 0.00015625 8.73828125 -0.0078125 C9.67027344 -0.00523438 10.60226562 -0.00265625 11.5625 0 C12.41908203 0.00225586 13.27566406 0.00451172 14.15820312 0.00683594 C16.28125 0.265625 16.28125 0.265625 18.28125 2.265625 C18.54854965 4.3121624 18.54854965 4.3121624 18.57318115 6.88302612 C18.58723495 7.85603668 18.60128876 8.82904724 18.61576843 9.83154297 C18.62107071 10.90275391 18.62637299 11.97396484 18.63183594 13.07763672 C18.64509415 14.20291779 18.65835236 15.32819885 18.67201233 16.48757935 C18.71324007 20.22346447 18.73987561 23.95929088 18.765625 27.6953125 C18.78940408 30.28362554 18.81376446 32.87193329 18.83868408 35.4602356 C18.88867648 40.89256882 18.93162923 46.32489281 18.96923828 51.75732422 C19.01283897 58.03652016 19.0708993 64.3154595 19.13648582 70.59446132 C19.1991251 76.63320641 19.25032355 82.67198529 19.29669952 88.71088028 C19.31762662 91.28098296 19.3416016 93.85106265 19.36864471 96.42110825 C19.40500321 100.01235421 19.42836045 103.60345438 19.44824219 107.19482422 C19.46164139 108.26198669 19.47504059 109.32914917 19.48884583 110.4286499 C19.49162033 111.40730011 19.49439484 112.38595032 19.49725342 113.39425659 C19.50387371 114.24339567 19.510494 115.09253475 19.51731491 115.96740532 C19.25968621 118.47556021 18.54103003 120.10038706 17.28125 122.265625 C13.65626666 122.29456432 10.03131287 122.31240292 6.40625 122.328125 C4.85744141 122.34069336 4.85744141 122.34069336 3.27734375 122.35351562 C2.29121094 122.35673828 1.30507812 122.35996094 0.2890625 122.36328125 C-0.62214355 122.36851807 -1.53334961 122.37375488 -2.47216797 122.37915039 C-4.71875 122.265625 -4.71875 122.265625 -6.71875 121.265625 C-6.76542715 105.7845093 -6.80071778 90.30339884 -6.82237434 74.82222939 C-6.83269619 67.63439205 -6.8467738 60.44659838 -6.86962891 53.25878906 C-6.88953507 46.99543364 -6.90245983 40.73210983 -6.90692699 34.46872365 C-6.9095391 31.15090391 -6.91673831 27.83319598 -6.93021011 24.51539993 C-6.94464069 20.81571241 -6.94673148 17.11621486 -6.94580078 13.41650391 C-6.95299133 12.31095657 -6.96018188 11.20540924 -6.96759033 10.06636047 C-6.964841 9.06232681 -6.96209167 8.05829315 -6.95925903 7.02383423 C-6.96110262 6.14813089 -6.96294621 5.27242756 -6.96484566 4.37018776 C-6.44920453 -0.03947607 -3.77784361 0.00994917 0 0 Z " fill="#D92027" transform="translate(1062.71875,50.734375)"/>
<path d="M0 0 C1.41535995 2.20167104 1.77698447 4.17468508 2.125 6.75 C4.61205465 5.60212862 6.69260582 4.3463692 8.9375 2.75 C15.22663338 -1.1961229 21.29981978 -1.54836177 28.5 -1.4375 C29.31855469 -1.43685547 30.13710937 -1.43621094 30.98046875 -1.43554688 C36.98425752 -1.39074248 36.98425752 -1.39074248 38.125 -0.25 C38.37598924 3.22208807 38.31022096 6.7074062 38.3125 10.1875 C38.32474609 11.16783203 38.33699219 12.14816406 38.34960938 13.15820312 C38.35154297 14.09470703 38.35347656 15.03121094 38.35546875 15.99609375 C38.35957764 16.85904053 38.36368652 17.7219873 38.36791992 18.61108398 C38.125 20.75 38.125 20.75 36.125 22.75 C33.75537337 22.95277978 31.3774933 23.06355385 29 23.125 C21.38810817 23.47605361 16.19710396 24.67789604 10.75 30.125 C6.98337923 36.20954125 6.82101035 41.90814414 6.78125 48.85546875 C6.7666272 49.81649002 6.75200439 50.77751129 6.73693848 51.76765442 C6.67485919 55.86311902 6.63496634 59.95872864 6.59326172 64.05444336 C6.55958168 67.05078045 6.51447604 70.04679525 6.46875 73.04296875 C6.4634729 73.97110886 6.4581958 74.89924896 6.45275879 75.85551453 C6.43934448 76.71683487 6.42593018 77.57815521 6.41210938 78.46557617 C6.40481812 79.22247238 6.39752686 79.97936859 6.39001465 80.75920105 C6.125 82.75 6.125 82.75 4.125 85.75 C1.80249023 86.10644531 1.80249023 86.10644531 -1.06640625 86.078125 C-2.09314453 86.07296875 -3.11988281 86.0678125 -4.17773438 86.0625 C-5.25345703 86.041875 -6.32917969 86.02125 -7.4375 86 C-9.05688477 85.99226563 -9.05688477 85.99226563 -10.70898438 85.984375 C-18.7212004 85.9037996 -18.7212004 85.9037996 -19.875 84.75 C-19.97543271 82.10799939 -20.0111685 79.4921141 -20.00439453 76.84960938 C-20.00614685 76.02201614 -20.00789917 75.19442291 -20.00970459 74.3417511 C-20.01412393 71.59239638 -20.01118483 68.84310543 -20.0078125 66.09375 C-20.00848552 64.19185371 -20.00945552 62.28995751 -20.01071167 60.38806152 C-20.01218875 56.39655745 -20.01003375 52.40507571 -20.00537109 48.41357422 C-19.9996738 43.28509493 -20.00295275 38.15666798 -20.00894356 33.02819061 C-20.01254889 29.09925946 -20.01141072 25.17034082 -20.00881577 21.2414093 C-20.00814642 19.34987888 -20.00897519 17.45834735 -20.01129532 15.56681824 C-20.01382138 12.92797823 -20.00998191 10.28922419 -20.00439453 7.65039062 C-20.00641876 6.86074417 -20.00844299 6.07109772 -20.01052856 5.25752258 C-19.98926251 -0.13573749 -19.98926251 -0.13573749 -18.875 -1.25 C-12.84186437 -2.2901958 -5.34313871 -3.56209247 0 0 Z " fill="#D92027" transform="translate(1346.875,87.25)"/>
<path d="M0 0 C1.00023193 0.00523682 2.00046387 0.01047363 3.03100586 0.01586914 C4.1105957 0.0190918 5.19018555 0.02231445 6.30249023 0.02563477 C8.00695312 0.03820312 8.00695312 0.03820312 9.74584961 0.05102539 C11.45611328 0.05779297 11.45611328 0.05779297 13.20092773 0.06469727 C16.02845312 0.07652792 18.85587601 0.09301129 21.68334961 0.11352539 C23.22435988 3.19554594 22.83064383 6.43809677 22.82861328 9.8203125 C22.83197189 10.61557846 22.83533051 11.41084442 22.83879089 12.23020935 C22.84831361 14.8671117 22.85024464 17.50395065 22.85131836 20.14086914 C22.85452992 21.96928433 22.85789391 23.79769925 22.86140442 25.62611389 C22.86739892 29.46201168 22.86924398 33.29788692 22.86865234 37.13378906 C22.86855068 42.05469831 22.88220597 46.9754634 22.89942455 51.89633846 C22.91052996 55.67351448 22.91257201 59.45065547 22.91204262 63.22784615 C22.91322482 65.04236918 22.91766 66.85689305 22.92537498 68.67140007 C22.93514592 71.20681806 22.93230843 73.74192094 22.92626953 76.27734375 C22.93188904 77.03017639 22.93750854 77.78300903 22.94329834 78.55865479 C22.92061803 82.29605966 22.81197175 83.92059218 20.68334961 87.11352539 C18.36083984 87.4699707 18.36083984 87.4699707 15.49194336 87.44165039 C14.46520508 87.43649414 13.4384668 87.43133789 12.38061523 87.42602539 C11.30489258 87.40540039 10.22916992 87.38477539 9.12084961 87.36352539 C7.50146484 87.35579102 7.50146484 87.35579102 5.84936523 87.34790039 C-2.16285079 87.26732499 -2.16285079 87.26732499 -3.31665039 86.11352539 C-3.4170831 83.47152478 -3.45281889 80.85563949 -3.44604492 78.21313477 C-3.44779724 77.38554153 -3.44954956 76.5579483 -3.45135498 75.70527649 C-3.45577432 72.95592177 -3.45283522 70.20663082 -3.44946289 67.45727539 C-3.45013591 65.55537911 -3.45110591 63.6534829 -3.45236206 61.75158691 C-3.45383914 57.76008284 -3.45168414 53.7686011 -3.44702148 49.77709961 C-3.44132419 44.64862032 -3.44460314 39.52019337 -3.45059395 34.391716 C-3.45419928 30.46278485 -3.45306111 26.53386621 -3.45046616 22.60493469 C-3.44979681 20.71340428 -3.45062558 18.82187274 -3.45294571 16.93034363 C-3.45547177 14.29150362 -3.4516323 11.65274958 -3.44604492 9.01391602 C-3.44806915 8.22426956 -3.45009338 7.43462311 -3.45217896 6.62104797 C-3.42673378 0.16792404 -3.42673378 0.16792404 0 0 Z " fill="#D92027" transform="translate(1009.316650390625,85.886474609375)"/>
<path d="M0 0 C1.69576172 -0.03867187 1.69576172 -0.03867187 3.42578125 -0.078125 C8.82211002 0.46473921 12.18591325 3.24818657 15.6875 7.25 C17.47973217 12.6266965 17.63708659 18.82327871 15.5625 24.125 C11.52820684 28.69719892 8.93898456 31.3841988 2.8125 32.25 C-2.08523586 32.49304554 -6.11076846 31.85507355 -10.3125 29.25 C-13.71883376 26.14023759 -16.04979919 22.90226782 -16.515625 18.19921875 C-16.62117738 13.10631656 -16.24916985 9.60437254 -13.3125 5.25 C-8.71378961 1.09994428 -6.14694857 0.08353724 0 0 Z " fill="#D92027" transform="translate(1018.3125,42.75)"/>
<path d="M0 0 C3.02863016 1.16485775 4.01703798 2.01766141 5.4375 4.9375 C5.21712372 8.61043796 5.06783454 10.30716546 2.4375 12.9375 C-1.17899298 13.40921648 -2.93562512 13.35541658 -6 11.3125 C-7.5625 8.9375 -7.5625 8.9375 -7.5625 5.875 C-6.5625 2.9375 -6.5625 2.9375 -4.8125 1 C-2.5625 -0.0625 -2.5625 -0.0625 0 0 Z " fill="#040707" transform="translate(157.5625,155.0625)"/>
<path d="M0 0 C1.875 1.125 1.875 1.125 3 3 C2.66666667 9.33333333 2.66666667 9.33333333 0 12 C-4.05261287 12.34490322 -5.54754176 12.30163882 -9 10 C-9.33427818 6.99149637 -9.5325554 4.89946828 -9 2 C-6.22677943 -1.38949181 -4.00593654 -1.4380285 0 0 Z " fill="#040707" transform="translate(100,156)"/>
<path d="M0 0 C1.051875 0.01160156 1.051875 0.01160156 2.125 0.0234375 C2.82625 0.01570313 3.5275 0.00796875 4.25 0 C6.125 0.3984375 6.125 0.3984375 8.125 3.3984375 C8.45002803 6.51870657 8.63651479 8.54591285 7 11.2734375 C4.24409116 12.92698281 2.27424548 12.79209318 -0.875 12.3984375 C-2.75 11.2734375 -2.75 11.2734375 -3.875 9.3984375 C-4.27533886 5.55518442 -4.69612168 0.99792586 0 0 Z " fill="#040707" transform="translate(111.875,117.6015625)"/>
<path d="M0 0 C3.42201828 -0.37331109 5.90185629 -0.63763183 8.9375 1.125 C10.50422245 3.88980433 10.38976435 5.88188517 10 9 C8.875 10.875 8.875 10.875 7 12 C2.92205575 12.42478586 1.46923881 12.31282587 -2 10 C-2.39507893 5.65413172 -2.45331002 3.67996503 0 0 Z " fill="#040707" transform="translate(136,118)"/>
</svg>
