<?xml version="1.0" encoding="UTF-8"?>
<svg version="1.1" xmlns="http://www.w3.org/2000/svg" width="56" height="56">
<path d="M0 0 C6.86644191 4.46597848 11.53156329 9.19063044 13.921875 17.25 C15.23920688 28.08909914 13.82932172 36.31481515 7.296875 45 C2.49522443 50.11143448 -2.76783106 52.84768283 -9.7421875 53.6953125 C-20.00306112 54.00375559 -27.92801056 52.16753174 -35.50390625 45.05078125 C-41.66304072 38.00522048 -42.83948106 31.0243666 -42.49609375 21.80859375 C-41.57602665 13.97512523 -38.0281514 7.45143306 -32.078125 2.25 C-22.97351345 -4.49732 -10.0328172 -5.43129954 0 0 Z " fill="#FAE7E7" transform="translate(42.078125,2.75)"/>
<path d="M0 0 C4.61562429 2.35135577 6.40471249 4.67452082 9 9 C9.99 9.66 10.98 10.32 12 11 C15.25652948 13.17101965 16.52720332 14.39983034 18 18 C18.53204782 22.78843042 18.49783872 24.98517492 16.375 29.3125 C13.09452226 33.02461955 10.2804983 34.74839955 5.26708984 35.30151367 C2.00595725 35.43997488 -1.23609543 35.45825315 -4.5 35.4375 C-5.61503906 35.45748047 -6.73007812 35.47746094 -7.87890625 35.49804688 C-14.19421647 35.49428328 -18.26474077 35.35517153 -23 31 C-25.910372 26.634442 -26.6506249 23.20499921 -26 18 C-23.97333762 14.29609979 -22.51955484 12.34636989 -19 10 C-18.01 10 -17.02 10 -16 10 C-15.979375 9.278125 -15.95875 8.55625 -15.9375 7.8125 C-14.73875576 4.21626728 -13.15960198 2.97886112 -10.03125 0.953125 C-6.38633559 -0.75718099 -4.00903688 -0.57271955 0 0 Z " fill="#262221" transform="translate(32,8)"/>
<path d="M0 0 C3.10532273 1.90553895 4.67596407 3.1143018 5.9375 6.5625 C7.43681483 10.00210461 9.67589657 10.4764526 13 12 C15.42730529 15.64095794 15.17378607 17.05214926 14.55859375 21.19140625 C14 23 14 23 11.9375 24.5 C11.298125 24.665 10.65875 24.83 10 25 C9.67 22.36 9.34 19.72 9 17 C8.01 17 7.02 17 6 17 C6 17.66 6 18.32 6 19 C5.34 19 4.68 19 4 19 C4 16.69 4 14.38 4 12 C2.02 12 0.04 12 -2 12 C-2 11.34 -2 10.68 -2 10 C-2.66 10 -3.32 10 -4 10 C-4 10.66 -4 11.32 -4 12 C-5.98 12 -7.96 12 -10 12 C-10 14.31 -10 16.62 -10 19 C-10.33 18.34 -10.66 17.68 -11 17 C-12.32 17 -13.64 17 -15 17 C-15.33 19.64 -15.66 22.28 -16 25 C-19 24 -19 24 -21 21 C-21.5625 18.1875 -21.5625 18.1875 -21 15 C-18.42250946 12.09275218 -15.47606886 9.73803443 -12 8 C-10.9935725 6.33720673 -9.99414593 4.67016516 -9 3 C-6.45195109 -0.51873421 -4.21598561 -0.59023798 0 0 Z " fill="#F4DDDD" transform="translate(31,12)"/>
<path d="M0 0 C4.61562429 2.35135577 6.40471249 4.67452082 9 9 C9.99 9.66 10.98 10.32 12 11 C15.25652948 13.17101965 16.52720332 14.39983034 18 18 C18.54768238 22.92914139 18.54281153 24.98924749 16.1875 29.375 C14 32 14 32 11 34 C6.45945946 33.45945946 6.45945946 33.45945946 5 32 C3.65252916 31.76924918 2.29622435 31.58846937 0.9375 31.4375 C-0.361875 31.293125 -1.66125 31.14875 -3 31 C-3 29.35 -3 27.7 -3 26 C0.3 26 3.6 26 7 26 C7 27.32 7 28.64 7 30 C9.59256899 29.06454002 9.59256899 29.06454002 12 27 C13.02079392 24.29891046 13.30146916 21.8697545 13 19 C11.1918092 16.45513887 9.79510781 15.33731847 6.9375 14.125 C4.06721311 12.45838181 3.40637868 9.93505116 2 7 C-1.49124017 4.67250655 -2.89222251 4.49700684 -7 5 C-9.84780619 7.23206431 -10.84997666 8.54992999 -12 12 C-13.32 11.34 -14.64 10.68 -16 10 C-15.92280808 7.29828286 -15.5200634 5.55937051 -13.65625 3.5546875 C-9.05238107 -0.10748097 -5.8116432 -0.83023474 0 0 Z " fill="#D92A30" transform="translate(32,8)"/>
<path d="M0 0 C0.66 0 1.32 0 2 0 C2 0.66 2 1.32 2 2 C3.98 2 5.96 2 8 2 C8 4.64 8 7.28 8 10 C8.66 10.33 9.32 10.66 10 11 C8.02 11 6.04 11 4 11 C4.66 10.67 5.32 10.34 6 10 C6 8.02 6 6.04 6 4 C2.7 4 -0.6 4 -4 4 C-4 5.98 -4 7.96 -4 10 C-2.35 10 -0.7 10 1 10 C0.67 10.66 0.34 11.32 0 12 C-2.31 11.67 -4.62 11.34 -7 11 C-6.67 8.03 -6.34 5.06 -6 2 C-4.02 2 -2.04 2 0 2 C0 1.34 0 0.68 0 0 Z " fill="#100F0D" transform="translate(27,22)"/>
<path d="M0 0 C3.3 0 6.6 0 10 0 C10 1.65 10 3.3 10 5 C6.7 5 3.4 5 0 5 C0 3.35 0 1.7 0 0 Z " fill="#CFBFBF" transform="translate(29,34)"/>
<path d="M0 0 C3.3 0 6.6 0 10 0 C10 1.65 10 3.3 10 5 C6.7 5 3.4 5 0 5 C0 3.35 0 1.7 0 0 Z " fill="#F2DFDF" transform="translate(23,26)"/>
<path d="M0 0 C2.97 0 5.94 0 9 0 C9 1.65 9 3.3 9 5 C6.03 4.67 3.06 4.34 0 4 C0 2.68 0 1.36 0 0 Z M3 1 C3 1.99 3 2.98 3 4 C3.66 4 4.32 4 5 4 C5 3.01 5 2.02 5 1 C4.34 1 3.68 1 3 1 Z " fill="#F4E1E1" transform="translate(18,34)"/>
<path d="M0 0 C0.99 0 1.98 0 3 0 C4.4783226 2.95664519 4.06032783 5.74229737 4 9 C3.34 9 2.68 9 2 9 C2 7.68 2 6.36 2 5 C-0.97 5 -3.94 5 -7 5 C-7 4.67 -7 4.34 -7 4 C-6.21625 3.855625 -5.4325 3.71125 -4.625 3.5625 C-2.03578982 3.12201075 -2.03578982 3.12201075 0 2 C0 1.34 0 0.68 0 0 Z " fill="#403A39" transform="translate(37,29)"/>
<path d="M0 0 C3.3 0 6.6 0 10 0 C10 1.65 10 3.3 10 5 C9.01 4.67 8.02 4.34 7 4 C7 3.01 7 2.02 7 1 C6.01 1 5.02 1 4 1 C3.67 1.99 3.34 2.98 3 4 C2.67 3.01 2.34 2.02 2 1 C1.34 0.67 0.68 0.34 0 0 Z " fill="#A39796" transform="translate(23,26)"/>
<path d="M0 0 C1.32 0 2.64 0 4 0 C4.33 0.99 4.66 1.98 5 3 C3.68 3.33 2.36 3.66 1 4 C0.67 5.32 0.34 6.64 0 8 C0 5.36 0 2.72 0 0 Z " fill="#373332" transform="translate(16,29)"/>
<path d="M0 0 C0.99 0 1.98 0 3 0 C3 1.65 3 3.3 3 5 C1.35 5 -0.3 5 -2 5 C-1.34 3.35 -0.68 1.7 0 0 Z " fill="#FAE2E2" transform="translate(36,34)"/>
</svg>
